<svg width="88" height="82" viewBox="0 0 88 82" fill="none" xmlns="http://www.w3.org/2000/svg">
<path d="M54.3122 14.8716C53.5393 14.7783 52.7517 14.7296 51.9535 14.7296C41.2455 14.7296 32.5646 23.4094 32.5646 34.1175V63.9445C32.5646 64.6601 32.6133 65.364 32.7086 66.0531C28.8234 65.2063 25.3512 63.2542 22.6379 60.5409C18.9432 56.8473 16.6586 51.7426 16.6586 46.1053L5 46.3563L16.6586 32.2722V21.3895C16.6586 16.0349 18.8289 11.1885 22.3372 7.67909C25.8455 4.17055 30.6929 2 36.0466 2C44.468 2 51.636 7.37042 54.3122 14.8716Z" stroke="#F0DABD" stroke-width="4" stroke-miterlimit="10"/>
<path d="M55.4354 21.3895V51.2165C55.4354 59.6686 48.5839 66.5201 40.1308 66.5201H37.0735C35.5755 66.5201 34.1146 66.3591 32.7086 66.0531C32.6133 65.364 32.5646 64.66 32.5646 63.9444V34.1175C32.5646 23.4094 41.2455 14.7296 51.9535 14.7296C52.7517 14.7296 53.5393 14.7783 54.3122 14.8715C55.0395 16.9083 55.4354 19.1028 55.4354 21.3895Z" stroke="#F0DABD" stroke-width="4" stroke-miterlimit="10"/>
<path d="M83 59.0852L71.3414 58.8344C71.3414 64.4717 69.0567 69.5753 65.3621 73.2688C61.6685 76.9635 56.5649 79.248 50.9276 79.248H47.8693C40.1328 79.248 33.7365 73.5071 32.7086 66.0531C34.1146 66.3591 35.5755 66.5201 37.0735 66.5201H40.1308C48.5839 66.5201 55.4354 59.6686 55.4354 51.2165V21.3895C55.4354 19.1028 55.0395 16.9083 54.3122 14.8716C58.7235 15.4061 62.6774 17.4228 65.6629 20.4081C69.1711 23.9164 71.3414 28.7639 71.3414 34.1175V45.0002L83 59.0852Z" stroke="#F0DABD" stroke-width="4" stroke-miterlimit="10"/>
</svg>
